<?xml version="1.0" encoding="UTF-8" standalone="no" ?>
<!DOCTYPE svg PUBLIC "-//W3C//DTD SVG 1.1//EN" "http://www.w3.org/Graphics/SVG/1.1/DTD/svg11.dtd">
<svg xmlns="http://www.w3.org/2000/svg" xmlns:xlink="http://www.w3.org/1999/xlink" version="1.1" width="1280" height="1024" viewBox="0 0 1280 1024" xml:space="preserve">
<desc>Created with Fabric.js 5.3.0</desc>
<defs>
</defs>
<g transform="matrix(1 0 0 1 640 512)" id="background-logo"  >
<rect style="stroke: none; stroke-width: 0; stroke-dasharray: none; stroke-linecap: butt; stroke-dashoffset: 0; stroke-linejoin: miter; stroke-miterlimit: 4; fill: rgb(36,52,99); fill-rule: nonzero; opacity: 1;"  paint-order="stroke"  x="-640" y="-512" rx="0" ry="0" width="1280" height="1024" />
</g>
<g transform="matrix(2.0048695369252965 0 0 2.0048695369252965 251.50169207317072 512)" id="logo-logo"  >
<g style=""  paint-order="stroke"   >
		<g transform="matrix(-2.000091911764706 0 0 -2.000091911764706 0 2.842171e-14)"  >
<g style=""  paint-order="stroke"   >
		<g transform="matrix(1 0 0 1 0 0)"  >
<linearGradient id="SVGID_56777_63263" gradientUnits="userSpaceOnUse" gradientTransform="matrix(1 0 0 1 0 0)"  x1="0" y1="0" x2="0" y2="101">
<stop offset="0%" style="stop-color:rgb(23,234,217);stop-opacity: 1"/>
<stop offset="100%" style="stop-color:rgb(96,120,234);stop-opacity: 1"/>
</linearGradient>
<path style="stroke: none; stroke-width: 1; stroke-dasharray: none; stroke-linecap: butt; stroke-dashoffset: 0; stroke-linejoin: miter; stroke-miterlimit: 4; fill: url(#SVGID_56777_63263); fill-rule: nonzero; opacity: 1;"  paint-order="stroke"  transform=" translate(-35, -50.050000000000004)" d="M 35 0 C 15.7 0 0 15.8 0 35.2 C 0 41.7 1.8 48.1 5.2 53.7 L 33 98.7 C 33.5 99.60000000000001 34.5 100.10000000000001 35.5 100.10000000000001 C 35.5 100.10000000000001 35.5 100.10000000000001 35.5 100.10000000000001 C 36.5 100.10000000000001 37.5 99.60000000000001 38 98.7 L 65.1 53.300000000000004 C 68.3 47.900000000000006 70 41.60000000000001 70 35.300000000000004 C 70 15.8 54.3 0 35 0 z M 35 46.9 C 28.5 46.9 23.3 41.6 23.3 35.099999999999994 C 23.3 28.599999999999994 28.6 23.299999999999994 35 23.299999999999994 C 41.4 23.299999999999994 46.7 28.599999999999994 46.7 35.099999999999994 C 46.7 41.5 41.6 46.9 35 46.9 z" stroke-linecap="round" />
</g>
</g>
</g>
		<g transform="matrix(0.5558564176120062 0 0 0.5558564176120062 0.070559739301018 29.706272720007547)"  >
<g style=""  paint-order="stroke"   >
		<g transform="matrix(1 0 0 1 0 0)"  >
<path style="stroke: none; stroke-width: 1; stroke-dasharray: none; stroke-linecap: butt; stroke-dashoffset: 0; stroke-linejoin: miter; stroke-miterlimit: 4; fill: rgb(225,255,253); fill-rule: nonzero; opacity: 1;"  paint-order="stroke"  transform=" translate(-100, -100)" d="M 200 100 C 200 155.22847498307934 155.22847498307934 200 100 200 C 44.771525016920656 200 0 155.22847498307934 0 100 C 0 44.771525016920656 44.771525016920656 0 100 0 C 155.22847498307934 0 200 44.77152501692063 200 99.99999999999997 Z" stroke-linecap="round" />
</g>
</g>
</g>
</g>
</g>
<g transform="matrix(1.9211538461538462 0 0 1.9211538461538462 691.4768589471038 494.25731083145814)" id="text-logo"  >
<g style=""  paint-order="stroke"   >
		<g transform="matrix(1 0 0 1 0 0)" id="text-logo-path-0"  >
<path style="stroke: none; stroke-width: 0.5675675675675677; stroke-dasharray: none; stroke-linecap: butt; stroke-dashoffset: 0; stroke-linejoin: miter; stroke-miterlimit: 4; fill: rgb(26,227,217); fill-rule: nonzero; opacity: 1;"  paint-order="stroke"  transform=" translate(-123.91, 14.7)" d="M 21.38 -7.06 C 19.99 -6.17 18.44 -5.71 16.72 -5.71 C 11.8 -5.71 7.73 -9.79 7.73 -14.7 C 7.73 -19.61 11.8 -23.69 16.72 -23.69 C 18.44 -23.69 19.99 -23.23 21.38 -22.34 C 21.88 -22.05 22.39 -21.92 22.97 -21.92 C 24.57 -21.92 25.87 -23.23 25.87 -24.86 C 25.87 -25.91 25.37 -26.8 24.49 -27.34 C 22.26 -28.73 19.61 -29.57 16.72 -29.57 C 8.53 -29.57 1.85 -22.89 1.85 -14.7 C 1.85 -6.51 8.53 0.17 16.72 0.17 C 19.61 0.17 22.26 -0.67 24.49 -2.06 C 25.37 -2.6 25.87 -3.49 25.87 -4.54 C 25.87 -6.17 24.57 -7.48 22.97 -7.48 C 22.39 -7.48 21.88 -7.35 21.38 -7.06 Z M 38.38 -2.48 L 38.38 -7.98 L 51.44 -7.98 L 51.44 -2.48 C 51.44 -0.84 52.74 0.46 54.38 0.46 C 56.02 0.46 57.32 -0.84 57.32 -2.48 L 57.32 -17.14 C 57.32 -24.02 51.78 -29.57 44.93 -29.57 C 38.04 -29.57 32.5 -24.02 32.5 -17.14 L 32.5 -2.48 C 32.5 -0.84 33.8 0.46 35.44 0.46 C 37.08 0.46 38.38 -0.84 38.38 -2.48 Z M 38.38 -13.86 L 38.38 -17.14 C 38.38 -20.75 41.32 -23.69 44.93 -23.69 C 48.5 -23.69 51.44 -20.75 51.44 -17.14 L 51.44 -13.86 Z M 69.79 -2.65 L 69.79 -9.41 L 74.95 -9.41 L 75.16 -9.03 L 80.04 -1.18 C 80.58 -0.34 81.46 0.17 82.51 0.17 C 84.11 0.17 85.45 -1.13 85.45 -2.77 C 85.45 -3.32 85.29 -3.86 84.99 -4.33 L 81.21 -10.42 C 84.7 -12.01 87.18 -15.41 87.18 -19.45 C 87.18 -25.03 82.3 -29.4 76.55 -29.4 L 66.85 -29.4 C 65.21 -29.4 63.91 -28.1 63.91 -26.46 L 63.91 -2.65 C 63.91 -1.01 65.21 0.29 66.85 0.29 C 68.49 0.29 69.79 -1.01 69.79 -2.65 Z M 69.79 -15.29 L 69.79 -23.52 L 76.55 -23.52 C 79.2 -23.52 81.3 -21.59 81.3 -19.45 C 81.3 -17.22 79.2 -15.29 76.55 -15.29 Z M 96.74 0 L 110.23 0 C 111.86 0 113.17 -1.3 113.17 -2.94 C 113.17 -4.58 111.86 -5.88 110.23 -5.88 L 99.64 -5.88 L 99.64 -12.18 L 108.55 -12.18 C 110.18 -12.18 111.49 -13.48 111.49 -15.12 C 111.49 -16.76 110.18 -18.06 108.55 -18.06 L 99.64 -18.06 L 99.64 -23.52 L 110.23 -23.52 C 111.86 -23.52 113.17 -24.82 113.17 -26.46 C 113.17 -28.1 111.86 -29.4 110.23 -29.4 L 96.74 -29.4 L 96.7 -29.4 C 95.06 -29.4 93.76 -28.1 93.76 -26.46 L 93.76 -2.94 C 93.76 -1.3 95.06 0 96.7 0 Z M 122.73 0 L 136.21 0 C 137.85 0 139.15 -1.3 139.15 -2.94 C 139.15 -4.58 137.85 -5.88 136.21 -5.88 L 125.63 -5.88 L 125.63 -12.18 L 134.53 -12.18 C 136.17 -12.18 137.47 -13.48 137.47 -15.12 C 137.47 -16.76 136.17 -18.06 134.53 -18.06 L 125.63 -18.06 L 125.63 -23.52 L 136.21 -23.52 C 137.85 -23.52 139.15 -24.82 139.15 -26.46 C 139.15 -28.1 137.85 -29.4 136.21 -29.4 L 122.73 -29.4 L 122.69 -29.4 C 121.05 -29.4 119.75 -28.1 119.75 -26.46 L 119.75 -2.94 C 119.75 -1.3 121.05 0 122.69 0 Z M 151.62 -2.65 L 151.62 -9.41 L 156.79 -9.41 L 157 -9.03 L 161.87 -1.18 C 162.41 -0.34 163.3 0.17 164.35 0.17 C 165.94 0.17 167.29 -1.13 167.29 -2.77 C 167.29 -3.32 167.12 -3.86 166.82 -4.33 L 163.04 -10.42 C 166.53 -12.01 169.01 -15.41 169.01 -19.45 C 169.01 -25.03 164.14 -29.4 158.38 -29.4 L 148.68 -29.4 C 147.04 -29.4 145.74 -28.1 145.74 -26.46 L 145.74 -2.65 C 145.74 -1.01 147.04 0.29 148.68 0.29 C 150.32 0.29 151.62 -1.01 151.62 -2.65 Z M 151.62 -15.29 L 151.62 -23.52 L 158.38 -23.52 C 161.03 -23.52 163.13 -21.59 163.13 -19.45 C 163.13 -17.22 161.03 -15.29 158.38 -15.29 Z M 181.47 -2.65 L 181.47 -26.75 C 181.47 -28.39 180.17 -29.69 178.53 -29.69 C 176.9 -29.69 175.59 -28.39 175.59 -26.75 L 175.59 -2.65 C 175.59 -1.01 176.9 0.29 178.53 0.29 C 180.17 0.29 181.47 -1.01 181.47 -2.65 Z M 202.93 -5.71 C 197.97 -5.71 193.94 -9.74 193.94 -14.7 C 193.94 -19.66 197.97 -23.69 202.93 -23.69 C 207.88 -23.69 211.92 -19.66 211.92 -14.7 C 211.92 -9.74 207.88 -5.71 202.93 -5.71 Z M 202.93 0.17 C 211.16 0.17 217.8 -6.47 217.8 -14.7 C 217.8 -22.93 211.16 -29.57 202.93 -29.57 C 194.7 -29.57 188.06 -22.93 188.06 -14.7 C 188.06 -6.47 194.7 0.17 202.93 0.17 Z M 245.47 -3.86 L 237.44 -16.09 L 243.66 -25.54 C 244 -26.04 244.16 -26.59 244.16 -27.17 C 244.16 -28.81 242.86 -30.11 241.22 -30.11 C 240.22 -30.11 239.33 -29.65 238.79 -28.85 L 233.92 -21.42 L 229.04 -28.85 C 228.5 -29.65 227.62 -30.11 226.61 -30.11 C 224.97 -30.11 223.67 -28.81 223.67 -27.17 C 223.67 -26.59 223.84 -26.04 224.17 -25.54 L 230.39 -16.09 L 222.37 -3.86 C 222.03 -3.36 221.86 -2.81 221.86 -2.23 C 221.86 -0.59 223.16 0.71 224.8 0.71 C 225.81 0.71 226.69 0.25 227.24 -0.55 L 233.92 -10.71 L 240.59 -0.55 C 241.14 0.25 242.02 0.71 243.03 0.71 C 244.67 0.71 245.97 -0.59 245.97 -2.23 C 245.97 -2.81 245.8 -3.36 245.47 -3.86 Z" stroke-linecap="round" />
</g>
</g>
</g>
<g transform="matrix(1.9211538461538462 0 0 1.9211538461538462 809.5623036116324 556.2185528854143)" id="tagline-fc76cd91-911e-4827-afcd-44214c9dcca0-logo"  >
<g style=""  paint-order="stroke"   >
		<g transform="matrix(1 0 0 1 0 0)" id="tagline-fc76cd91-911e-4827-afcd-44214c9dcca0-logo-path-0"  >
<path style="stroke: none; stroke-width: 0; stroke-dasharray: none; stroke-linecap: butt; stroke-dashoffset: 0; stroke-linejoin: miter; stroke-miterlimit: 4; fill: rgb(26,227,217); fill-rule: nonzero; opacity: 1;"  paint-order="stroke"  transform=" translate(-190.565, 4.915)" d="M 8.99 -11.73 L 5.93 -7.68 C 5.68 -7.34 5.27 -7.34 5.02 -7.68 L 1.96 -11.73 C 1.84 -11.88 1.65 -11.99 1.43 -11.99 C 1.05 -11.99 0.75 -11.68 0.75 -11.31 C 0.75 -11.17 0.8 -11 0.88 -10.9 L 4.33 -6.34 C 4.59 -6 4.79 -5.39 4.79 -4.96 L 4.79 -0.61 C 4.79 -0.24 5.1 0.07 5.47 0.07 C 5.85 0.07 6.15 -0.24 6.15 -0.61 L 6.15 -4.96 C 6.15 -5.39 6.36 -6 6.61 -6.34 L 10.06 -10.9 C 10.15 -11 10.2 -11.15 10.2 -11.31 C 10.2 -11.68 9.89 -11.99 9.52 -11.99 C 9.32 -11.99 9.11 -11.88 8.99 -11.73 Z M 22.47 -1.28 C 19.89 -1.28 17.78 -3.38 17.78 -5.97 C 17.78 -8.52 19.89 -10.63 22.47 -10.63 C 25.04 -10.63 27.15 -8.52 27.15 -5.97 C 27.15 -3.38 25.04 -1.28 22.47 -1.28 Z M 22.47 0.09 C 25.79 0.09 28.51 -2.64 28.51 -5.97 C 28.51 -9.27 25.79 -11.99 22.47 -11.99 C 19.14 -11.99 16.42 -9.27 16.42 -5.97 C 16.42 -2.64 19.14 0.09 22.47 0.09 Z M 43.91 -11.29 L 43.91 -4.59 C 43.91 -2.77 42.42 -1.28 40.6 -1.28 C 38.78 -1.28 37.28 -2.77 37.28 -4.59 L 37.28 -11.29 C 37.28 -11.66 36.98 -11.97 36.6 -11.97 C 36.23 -11.97 35.92 -11.66 35.92 -11.29 L 35.92 -4.59 C 35.92 -2.02 38.03 0.09 40.6 0.09 C 43.16 0.09 45.27 -2.02 45.27 -4.59 L 45.27 -11.29 C 45.27 -11.66 44.97 -11.97 44.59 -11.97 C 44.22 -11.97 43.91 -11.66 43.91 -11.29 Z M 54.04 -0.61 L 54.04 -2.87 C 54.04 -3.3 54.38 -3.64 54.81 -3.64 L 55.95 -3.64 C 56.37 -3.64 56.92 -3.37 57.17 -3.03 L 59.45 -0.07 C 59.57 0.1 59.76 0.19 59.98 0.19 C 60.33 0.19 60.66 -0.1 60.66 -0.49 C 60.66 -0.63 60.61 -0.78 60.52 -0.9 L 58.7 -3.26 C 58.45 -3.6 58.55 -4.01 58.94 -4.2 C 60.18 -4.91 61.03 -6.26 61.03 -7.77 C 61.03 -10.01 59.14 -11.9 56.9 -11.9 L 53.62 -11.9 C 53.11 -11.9 52.68 -11.48 52.68 -10.97 L 52.68 -0.61 C 52.68 -0.24 52.99 0.07 53.36 0.07 C 53.74 0.07 54.04 -0.24 54.04 -0.61 Z M 54.04 -5.76 L 54.04 -9.78 C 54.04 -10.2 54.38 -10.54 54.81 -10.54 L 56.9 -10.54 C 58.48 -10.54 59.67 -9.35 59.67 -7.77 C 59.67 -6.19 58.48 -5 56.9 -5 L 54.81 -5 C 54.38 -5 54.04 -5.34 54.04 -5.76 Z M 86.63 -2.24 C 85.83 -1.63 84.88 -1.28 83.81 -1.28 C 81.23 -1.28 79.12 -3.38 79.12 -5.97 C 79.12 -8.52 81.23 -10.63 83.81 -10.63 C 84.86 -10.63 85.85 -10.25 86.63 -9.66 C 86.73 -9.59 86.89 -9.52 87.06 -9.52 C 87.41 -9.52 87.74 -9.83 87.74 -10.2 C 87.74 -10.4 87.62 -10.63 87.47 -10.74 C 86.43 -11.53 85.17 -11.99 83.81 -11.99 C 80.48 -11.99 77.76 -9.27 77.76 -5.97 C 77.76 -2.64 80.48 0.09 83.81 0.09 C 85.19 0.09 86.46 -0.39 87.47 -1.16 C 87.62 -1.28 87.74 -1.48 87.74 -1.7 C 87.74 -2.06 87.43 -2.38 87.06 -2.38 C 86.9 -2.38 86.75 -2.33 86.63 -2.24 Z M 105.33 -0.83 L 101.07 -11.31 C 100.71 -12.21 99.48 -12.21 99.13 -11.31 L 94.86 -0.83 C 94.83 -0.77 94.81 -0.66 94.81 -0.56 C 94.81 -0.2 95.1 0.12 95.49 0.12 C 95.74 0.12 96 -0.05 96.1 -0.29 L 96.73 -1.84 C 96.88 -2.23 97.36 -2.55 97.78 -2.55 L 102.41 -2.55 C 102.83 -2.55 103.31 -2.23 103.46 -1.84 L 104.09 -0.29 C 104.19 -0.05 104.43 0.12 104.7 0.12 C 105.08 0.12 105.38 -0.19 105.38 -0.56 C 105.38 -0.65 105.37 -0.75 105.33 -0.83 Z M 97.87 -4.62 L 99.81 -9.37 C 99.96 -9.76 100.23 -9.76 100.39 -9.37 L 102.32 -4.62 C 102.48 -4.23 102.27 -3.91 101.85 -3.91 L 98.35 -3.91 C 97.92 -3.91 97.72 -4.23 97.87 -4.62 Z M 114.16 -0.61 L 114.16 -2.87 C 114.16 -3.3 114.5 -3.64 114.92 -3.64 L 116.06 -3.64 C 116.48 -3.64 117.03 -3.37 117.28 -3.03 L 119.56 -0.07 C 119.68 0.1 119.87 0.19 120.09 0.19 C 120.44 0.19 120.77 -0.1 120.77 -0.49 C 120.77 -0.63 120.72 -0.78 120.63 -0.9 L 118.81 -3.26 C 118.56 -3.6 118.66 -4.01 119.05 -4.2 C 120.29 -4.91 121.14 -6.26 121.14 -7.77 C 121.14 -10.01 119.25 -11.9 117.01 -11.9 L 113.73 -11.9 C 113.22 -11.9 112.8 -11.48 112.8 -10.97 L 112.8 -0.61 C 112.8 -0.24 113.1 0.07 113.47 0.07 C 113.85 0.07 114.16 -0.24 114.16 -0.61 Z M 114.16 -5.76 L 114.16 -9.78 C 114.16 -10.2 114.5 -10.54 114.92 -10.54 L 117.01 -10.54 C 118.59 -10.54 119.78 -9.35 119.78 -7.77 C 119.78 -6.19 118.59 -5 117.01 -5 L 114.92 -5 C 114.5 -5 114.16 -5.34 114.16 -5.76 Z M 135.59 -1.36 L 130.68 -1.36 C 130.25 -1.36 129.91 -1.7 129.91 -2.13 L 129.91 -4.5 C 129.91 -4.93 130.25 -5.27 130.68 -5.27 L 134.4 -5.27 C 134.78 -5.27 135.08 -5.58 135.08 -5.95 C 135.08 -6.32 134.78 -6.63 134.4 -6.63 L 130.68 -6.63 C 130.25 -6.63 129.91 -6.97 129.91 -7.4 L 129.91 -9.78 C 129.91 -10.2 130.25 -10.54 130.68 -10.54 L 135.59 -10.54 C 135.97 -10.54 136.27 -10.85 136.27 -11.22 C 136.27 -11.59 135.97 -11.9 135.59 -11.9 L 129.49 -11.9 C 128.98 -11.9 128.55 -11.48 128.55 -10.97 L 128.55 -0.94 C 128.55 -0.43 128.98 0 129.49 0 L 135.59 0 C 135.97 0 136.27 -0.31 136.27 -0.68 C 136.27 -1.05 135.97 -1.36 135.59 -1.36 Z M 150.72 -1.36 L 145.81 -1.36 C 145.38 -1.36 145.04 -1.7 145.04 -2.13 L 145.04 -4.5 C 145.04 -4.93 145.38 -5.27 145.81 -5.27 L 149.53 -5.27 C 149.91 -5.27 150.21 -5.58 150.21 -5.95 C 150.21 -6.32 149.91 -6.63 149.53 -6.63 L 145.81 -6.63 C 145.38 -6.63 145.04 -6.97 145.04 -7.4 L 145.04 -9.78 C 145.04 -10.2 145.38 -10.54 145.81 -10.54 L 150.72 -10.54 C 151.1 -10.54 151.4 -10.85 151.4 -11.22 C 151.4 -11.59 151.1 -11.9 150.72 -11.9 L 144.62 -11.9 C 144.11 -11.9 143.68 -11.48 143.68 -10.97 L 143.68 -0.94 C 143.68 -0.43 144.11 0 144.62 0 L 150.72 0 C 151.1 0 151.4 -0.31 151.4 -0.68 C 151.4 -1.05 151.1 -1.36 150.72 -1.36 Z M 160.17 -0.61 L 160.17 -2.87 C 160.17 -3.3 160.51 -3.64 160.94 -3.64 L 162.08 -3.64 C 162.5 -3.64 163.05 -3.37 163.3 -3.03 L 165.58 -0.07 C 165.7 0.1 165.89 0.19 166.11 0.19 C 166.46 0.19 166.79 -0.1 166.79 -0.49 C 166.79 -0.63 166.74 -0.78 166.65 -0.9 L 164.83 -3.26 C 164.58 -3.6 164.68 -4.01 165.07 -4.2 C 166.31 -4.91 167.16 -6.26 167.16 -7.77 C 167.16 -10.01 165.27 -11.9 163.03 -11.9 L 159.75 -11.9 C 159.24 -11.9 158.81 -11.48 158.81 -10.97 L 158.81 -0.61 C 158.81 -0.24 159.12 0.07 159.49 0.07 C 159.87 0.07 160.17 -0.24 160.17 -0.61 Z M 160.17 -5.76 L 160.17 -9.78 C 160.17 -10.2 160.51 -10.54 160.94 -10.54 L 163.03 -10.54 C 164.61 -10.54 165.8 -9.35 165.8 -7.77 C 165.8 -6.19 164.61 -5 163.03 -5 L 160.94 -5 C 160.51 -5 160.17 -5.34 160.17 -5.76 Z M 174.66 -0.75 C 174.64 0.2 174.56 0.61 174.13 0.94 C 173.94 1.07 173.86 1.26 173.86 1.48 C 173.86 1.84 174.16 2.16 174.54 2.16 C 174.67 2.16 174.83 2.11 174.95 2.02 C 175.86 1.33 176 0.43 176.02 -0.75 C 176.02 -1.1 175.71 -1.43 175.34 -1.43 C 174.98 -1.43 174.66 -1.1 174.66 -0.75 Z M 190.16 -11.73 L 187.1 -7.68 C 186.85 -7.34 186.44 -7.34 186.18 -7.68 L 183.12 -11.73 C 183 -11.88 182.82 -11.99 182.6 -11.99 C 182.22 -11.99 181.92 -11.68 181.92 -11.31 C 181.92 -11.17 181.97 -11 182.05 -10.9 L 185.5 -6.34 C 185.76 -6 185.96 -5.39 185.96 -4.96 L 185.96 -0.61 C 185.96 -0.24 186.27 0.07 186.64 0.07 C 187.02 0.07 187.32 -0.24 187.32 -0.61 L 187.32 -4.96 C 187.32 -5.39 187.53 -6 187.78 -6.34 L 191.23 -10.9 C 191.32 -11 191.37 -11.15 191.37 -11.31 C 191.37 -11.68 191.06 -11.99 190.69 -11.99 C 190.48 -11.99 190.28 -11.88 190.16 -11.73 Z M 203.64 -1.28 C 201.06 -1.28 198.95 -3.38 198.95 -5.97 C 198.95 -8.52 201.06 -10.63 203.64 -10.63 C 206.21 -10.63 208.32 -8.52 208.32 -5.97 C 208.32 -3.38 206.21 -1.28 203.64 -1.28 Z M 203.64 0.09 C 206.96 0.09 209.68 -2.64 209.68 -5.97 C 209.68 -9.27 206.96 -11.99 203.64 -11.99 C 200.31 -11.99 197.59 -9.27 197.59 -5.97 C 197.59 -2.64 200.31 0.09 203.64 0.09 Z M 225.08 -11.29 L 225.08 -4.59 C 225.08 -2.77 223.58 -1.28 221.76 -1.28 C 219.95 -1.28 218.45 -2.77 218.45 -4.59 L 218.45 -11.29 C 218.45 -11.66 218.14 -11.97 217.77 -11.97 C 217.4 -11.97 217.09 -11.66 217.09 -11.29 L 217.09 -4.59 C 217.09 -2.02 219.2 0.09 221.76 0.09 C 224.33 0.09 226.44 -2.02 226.44 -4.59 L 226.44 -11.29 C 226.44 -11.66 226.13 -11.97 225.76 -11.97 C 225.39 -11.97 225.08 -11.66 225.08 -11.29 Z M 235.21 -0.61 L 235.21 -2.87 C 235.21 -3.3 235.55 -3.64 235.98 -3.64 L 237.12 -3.64 C 237.54 -3.64 238.08 -3.37 238.34 -3.03 L 240.62 -0.07 C 240.74 0.1 240.92 0.19 241.14 0.19 C 241.5 0.19 241.82 -0.1 241.82 -0.49 C 241.82 -0.63 241.77 -0.78 241.69 -0.9 L 239.87 -3.26 C 239.61 -3.6 239.72 -4.01 240.11 -4.2 C 241.35 -4.91 242.2 -6.26 242.2 -7.77 C 242.2 -10.01 240.31 -11.9 238.07 -11.9 L 234.79 -11.9 C 234.28 -11.9 233.85 -11.48 233.85 -10.97 L 233.85 -0.61 C 233.85 -0.24 234.16 0.07 234.53 0.07 C 234.91 0.07 235.21 -0.24 235.21 -0.61 Z M 235.21 -5.76 L 235.21 -9.78 C 235.21 -10.2 235.55 -10.54 235.98 -10.54 L 238.07 -10.54 C 239.65 -10.54 240.84 -9.35 240.84 -7.77 C 240.84 -6.19 239.65 -5 238.07 -5 L 235.98 -5 C 235.55 -5 235.21 -5.34 235.21 -5.76 Z M 267.8 -2.24 C 267 -1.63 266.05 -1.28 264.98 -1.28 C 262.39 -1.28 260.29 -3.38 260.29 -5.97 C 260.29 -8.52 262.39 -10.63 264.98 -10.63 C 266.03 -10.63 267.02 -10.25 267.8 -9.66 C 267.9 -9.59 268.06 -9.52 268.23 -9.52 C 268.58 -9.52 268.91 -9.83 268.91 -10.2 C 268.91 -10.4 268.79 -10.63 268.63 -10.74 C 267.6 -11.53 266.34 -11.99 264.98 -11.99 C 261.65 -11.99 258.93 -9.27 258.93 -5.97 C 258.93 -2.64 261.65 0.09 264.98 0.09 C 266.36 0.09 267.63 -0.39 268.63 -1.16 C 268.79 -1.28 268.91 -1.48 268.91 -1.7 C 268.91 -2.06 268.6 -2.38 268.23 -2.38 C 268.07 -2.38 267.92 -2.33 267.8 -2.24 Z M 282.03 -1.28 C 279.45 -1.28 277.34 -3.38 277.34 -5.97 C 277.34 -8.52 279.45 -10.63 282.03 -10.63 C 284.6 -10.63 286.71 -8.52 286.71 -5.97 C 286.71 -3.38 284.6 -1.28 282.03 -1.28 Z M 282.03 0.09 C 285.35 0.09 288.06 -2.64 288.06 -5.97 C 288.06 -9.27 285.35 -11.99 282.03 -11.99 C 278.7 -11.99 275.98 -9.27 275.98 -5.97 C 275.98 -2.64 278.7 0.09 282.03 0.09 Z M 296.84 -0.61 L 296.84 -8.91 C 296.84 -9.33 297.02 -9.38 297.26 -9.04 L 303.08 -0.39 C 303.57 0.39 304.83 0.03 304.83 -0.94 L 304.83 -11.29 C 304.83 -11.66 304.52 -11.97 304.15 -11.97 C 303.77 -11.97 303.47 -11.66 303.47 -11.29 L 303.47 -2.99 C 303.47 -2.57 303.28 -2.52 303.04 -2.86 L 297.23 -11.51 C 296.74 -12.29 295.48 -11.93 295.48 -10.97 L 295.48 -0.61 C 295.48 -0.24 295.78 0.07 296.16 0.07 C 296.53 0.07 296.84 -0.24 296.84 -0.61 Z M 296.11 -10.76 L 296.12 -10.74 Z M 304.18 -1.16 L 304.2 -1.14 Z M 317.32 -0.61 L 317.32 -9.78 C 317.32 -10.2 317.66 -10.54 318.09 -10.54 L 320.37 -10.54 C 320.74 -10.54 321.05 -10.85 321.05 -11.22 C 321.05 -11.59 320.74 -11.9 320.37 -11.9 L 312.92 -11.9 C 312.55 -11.9 312.24 -11.59 312.24 -11.22 C 312.24 -10.85 312.55 -10.54 312.92 -10.54 L 315.2 -10.54 C 315.62 -10.54 315.96 -10.2 315.96 -9.78 L 315.96 -0.61 C 315.96 -0.24 316.27 0.07 316.64 0.07 C 317.02 0.07 317.32 -0.24 317.32 -0.61 Z M 329.82 -0.61 L 329.82 -2.87 C 329.82 -3.3 330.16 -3.64 330.58 -3.64 L 331.72 -3.64 C 332.15 -3.64 332.69 -3.37 332.95 -3.03 L 335.22 -0.07 C 335.34 0.1 335.53 0.19 335.75 0.19 C 336.11 0.19 336.43 -0.1 336.43 -0.49 C 336.43 -0.63 336.38 -0.78 336.29 -0.9 L 334.48 -3.26 C 334.22 -3.6 334.32 -4.01 334.71 -4.2 C 335.95 -4.91 336.8 -6.26 336.8 -7.77 C 336.8 -10.01 334.92 -11.9 332.67 -11.9 L 329.39 -11.9 C 328.88 -11.9 328.46 -11.48 328.46 -10.97 L 328.46 -0.61 C 328.46 -0.24 328.76 0.07 329.14 0.07 C 329.51 0.07 329.82 -0.24 329.82 -0.61 Z M 329.82 -5.76 L 329.82 -9.78 C 329.82 -10.2 330.16 -10.54 330.58 -10.54 L 332.67 -10.54 C 334.25 -10.54 335.44 -9.35 335.44 -7.77 C 335.44 -6.19 334.25 -5 332.67 -5 L 330.58 -5 C 330.16 -5 329.82 -5.34 329.82 -5.76 Z M 350.27 -1.28 C 347.68 -1.28 345.58 -3.38 345.58 -5.97 C 345.58 -8.52 347.68 -10.63 350.27 -10.63 C 352.84 -10.63 354.94 -8.52 354.94 -5.97 C 354.94 -3.38 352.84 -1.28 350.27 -1.28 Z M 350.27 0.09 C 353.58 0.09 356.3 -2.64 356.3 -5.97 C 356.3 -9.27 353.58 -11.99 350.27 -11.99 C 346.94 -11.99 344.22 -9.27 344.22 -5.97 C 344.22 -2.64 346.94 0.09 350.27 0.09 Z M 370.75 -1.36 L 365.84 -1.36 C 365.42 -1.36 365.08 -1.7 365.08 -2.13 L 365.08 -11.29 C 365.08 -11.66 364.77 -11.97 364.4 -11.97 C 364.02 -11.97 363.72 -11.66 363.72 -11.29 L 363.72 -0.94 C 363.72 -0.43 364.14 0 364.65 0 L 370.75 0 C 371.13 0 371.43 -0.31 371.43 -0.68 C 371.43 -1.05 371.13 -1.36 370.75 -1.36 Z M 379.61 0.09 C 380.04 0.09 380.38 -0.26 380.38 -0.68 C 380.38 -1.1 380.04 -1.45 379.61 -1.45 C 379.19 -1.45 378.85 -1.1 378.85 -0.68 C 378.85 -0.26 379.19 0.09 379.61 0.09 Z" stroke-linecap="round" />
</g>
</g>
</g>
<g transform="matrix(1.9211538461538462 0 0 1.9211538461538462 251.5705249790273 578.0629767330502)" id="tagline-0a778122-ba1b-4c4e-8af7-0c89fc169ab9-logo"  >
<g style=""  paint-order="stroke"   >
		<g transform="matrix(1 0 0 1 0 0)" id="tagline-0a778122-ba1b-4c4e-8af7-0c89fc169ab9-logo-path-0"  >
<filter id="SVGID_63262" y="-24.34869873726349%" height="148.69739747452698%" x="-29.847615513755745%" width="159.69523102751148%" >
	<feGaussianBlur in="SourceAlpha" stdDeviation="0"></feGaussianBlur>
	<feOffset dx="4.408809263541316" dy="-2.204404631770658" result="oBlur" ></feOffset>
	<feFlood flood-color="rgb(194,218,218)" flood-opacity="1"/>
	<feComposite in2="oBlur" operator="in" />
	<feMerge>
		<feMergeNode></feMergeNode>
		<feMergeNode in="SourceGraphic"></feMergeNode>
	</feMerge>
</filter>
<path style="stroke: rgb(32,228,219); stroke-width: 5.511011579426644; stroke-dasharray: none; stroke-linecap: butt; stroke-dashoffset: 0; stroke-linejoin: miter; stroke-miterlimit: 4; fill: rgb(92,128,233); fill-rule: nonzero; opacity: 1;filter: url(#SVGID_63262);"  paint-order="stroke"  transform=" translate(-25.34483854958175, 25.93443383233963)" d="M 43.51 -12.14 C 39.74 -7.99 34.41 -5.4 28.34 -5.4 C 16.95 -5.4 7.77 -14.5 7.77 -25.97 C 7.77 -37.22 16.87 -46.47 28.34 -46.47 C 33.08 -46.47 37.59 -44.77 41 -42.03 C 41.37 -41.66 41.88 -41.51 42.48 -41.51 C 43.88 -41.44 44.92 -42.55 44.92 -43.88 C 44.92 -44.55 44.55 -45.29 43.96 -45.73 C 39.81 -49.14 34.19 -51.28 28.34 -51.28 C 14.13 -51.21 2.96 -39.96 2.96 -25.97 C 2.89 -11.77 14.21 -0.59 28.34 -0.59 C 35.82 -0.52 42.4 -3.7 47.06 -8.88 C 47.51 -9.4 47.73 -9.92 47.73 -10.51 C 47.66 -11.91 46.62 -12.95 45.29 -12.95 C 44.62 -12.95 43.96 -12.65 43.51 -12.14 Z" stroke-linecap="round" />
</g>
</g>
</g>
</svg>